<mxfile host="app.diagrams.net" agent="Mozilla/5.0 (Windows NT 10.0; Win64; x64) AppleWebKit/537.36 (KHTML, like Gecko) Chrome/136.0.0.0 Safari/537.36" version="26.2.14">
  <diagram name="Page-1" id="SXIv5XE0y641qDAEz_9x">
    <mxGraphModel dx="1226" dy="620" grid="1" gridSize="10" guides="1" tooltips="1" connect="1" arrows="1" fold="1" page="1" pageScale="1" pageWidth="850" pageHeight="1100" math="0" shadow="0">
      <root>
        <mxCell id="0" />
        <mxCell id="1" parent="0" />
        <mxCell id="17Eowlyse28eWyuEnlaL-54" value="&lt;font style=&quot;color: light-dark(rgb(0, 0, 0), rgb(255, 255, 255)); background-color: light-dark(transparent, rgb(96, 124, 129));&quot;&gt;CNC Services&lt;/font&gt;" style="rounded=0;whiteSpace=wrap;html=1;fillColor=light-dark(#FFFFFF,#57A9AD);strokeColor=light-dark(#000000,#FFC1CE);" vertex="1" parent="1">
          <mxGeometry x="210" y="200.07999999999998" width="270" height="170" as="geometry" />
        </mxCell>
        <mxCell id="17Eowlyse28eWyuEnlaL-47" style="edgeStyle=none;rounded=0;orthogonalLoop=1;jettySize=auto;html=1;entryX=0.995;entryY=0.63;entryDx=0;entryDy=0;entryPerimeter=0;" edge="1" parent="1" source="17Eowlyse28eWyuEnlaL-10" target="17Eowlyse28eWyuEnlaL-18">
          <mxGeometry relative="1" as="geometry" />
        </mxCell>
        <mxCell id="17Eowlyse28eWyuEnlaL-75" value="" style="edgeStyle=none;rounded=0;orthogonalLoop=1;jettySize=auto;html=1;" edge="1" parent="1" source="17Eowlyse28eWyuEnlaL-1" target="17Eowlyse28eWyuEnlaL-72">
          <mxGeometry relative="1" as="geometry" />
        </mxCell>
        <mxCell id="17Eowlyse28eWyuEnlaL-1" value="" style="image;points=[];aspect=fixed;html=1;align=center;shadow=0;dashed=0;image=img/lib/allied_telesis/computer_and_terminals/Laptop.svg;" vertex="1" parent="1">
          <mxGeometry x="10" y="197.47999999999996" width="42" height="42.599999999999994" as="geometry" />
        </mxCell>
        <mxCell id="17Eowlyse28eWyuEnlaL-77" value="" style="edgeStyle=none;rounded=0;orthogonalLoop=1;jettySize=auto;html=1;entryX=0.179;entryY=1.016;entryDx=0;entryDy=0;entryPerimeter=0;" edge="1" parent="1" source="17Eowlyse28eWyuEnlaL-2" target="17Eowlyse28eWyuEnlaL-72">
          <mxGeometry relative="1" as="geometry">
            <mxPoint x="113.00000000000011" y="348.78" as="targetPoint" />
          </mxGeometry>
        </mxCell>
        <mxCell id="17Eowlyse28eWyuEnlaL-2" value="" style="image;points=[];aspect=fixed;html=1;align=center;shadow=0;dashed=0;image=img/lib/allied_telesis/computer_and_terminals/Laptop.svg;" vertex="1" parent="1">
          <mxGeometry x="10" y="327.47999999999996" width="42" height="42.599999999999994" as="geometry" />
        </mxCell>
        <mxCell id="17Eowlyse28eWyuEnlaL-3" value="" style="image;points=[];aspect=fixed;html=1;align=center;shadow=0;dashed=0;image=img/lib/allied_telesis/computer_and_terminals/Laptop.svg;" vertex="1" parent="1">
          <mxGeometry x="10" y="261.47999999999996" width="42" height="42.599999999999994" as="geometry" />
        </mxCell>
        <mxCell id="17Eowlyse28eWyuEnlaL-4" value="Agents DB" style="image;aspect=fixed;html=1;points=[];align=center;fontSize=12;image=img/lib/azure2/databases/Azure_Database_PostgreSQL_Server.svg;" vertex="1" parent="1">
          <mxGeometry x="500" y="120" width="33" height="44" as="geometry" />
        </mxCell>
        <mxCell id="17Eowlyse28eWyuEnlaL-5" value="Tasks DB" style="image;aspect=fixed;html=1;points=[];align=center;fontSize=12;image=img/lib/azure2/databases/Azure_Database_PostgreSQL_Server.svg;" vertex="1" parent="1">
          <mxGeometry x="593.95" y="120" width="33" height="44" as="geometry" />
        </mxCell>
        <mxCell id="17Eowlyse28eWyuEnlaL-6" value="Data DB" style="image;aspect=fixed;html=1;points=[];align=center;fontSize=12;image=img/lib/azure2/databases/Azure_Database_PostgreSQL_Server.svg;" vertex="1" parent="1">
          <mxGeometry x="652.5" y="420.58" width="33" height="44" as="geometry" />
        </mxCell>
        <mxCell id="17Eowlyse28eWyuEnlaL-7" value="&lt;span style=&quot;background-color: light-dark(transparent, rgb(136, 255, 137));&quot;&gt;&lt;font style=&quot;color: light-dark(rgb(0, 0, 0), rgb(0, 0, 0));&quot;&gt;Elasticsearch&lt;/font&gt;&lt;/span&gt;" style="points=[];aspect=fixed;html=1;align=center;shadow=0;dashed=0;fillColor=light-dark(#FF6A00,#E9DD21);strokeColor=light-dark(transparent,#0CD9FF);shape=mxgraph.alibaba_cloud.elasticsearch;" vertex="1" parent="1">
          <mxGeometry x="669.76" y="120.08" width="40.24" height="43.92" as="geometry" />
        </mxCell>
        <mxCell id="17Eowlyse28eWyuEnlaL-8" value="Kafka" style="points=[];aspect=fixed;html=1;align=center;shadow=0;dashed=0;fillColor=light-dark(#FF6A00,#00B8E9);strokeColor=light-dark(transparent,#18CFFF);shape=mxgraph.alibaba_cloud.kafka;" vertex="1" parent="1">
          <mxGeometry x="490" y="330.08" width="103.95" height="77" as="geometry" />
        </mxCell>
        <mxCell id="17Eowlyse28eWyuEnlaL-10" value="UI" style="verticalLabelPosition=bottom;aspect=fixed;html=1;shape=mxgraph.salesforce.web;" vertex="1" parent="1">
          <mxGeometry x="710" y="210.08000000000004" width="90" height="71.1" as="geometry" />
        </mxCell>
        <mxCell id="17Eowlyse28eWyuEnlaL-17" value="" style="edgeStyle=orthogonalEdgeStyle;rounded=0;orthogonalLoop=1;jettySize=auto;html=1;" edge="1" parent="1" source="17Eowlyse28eWyuEnlaL-14" target="17Eowlyse28eWyuEnlaL-6">
          <mxGeometry relative="1" as="geometry" />
        </mxCell>
        <mxCell id="17Eowlyse28eWyuEnlaL-14" value="Data Consumers" style="html=1;whiteSpace=wrap;strokeColor=none;fillColor=#0079D6;labelPosition=center;verticalLabelPosition=middle;verticalAlign=top;align=center;fontSize=12;outlineConnect=0;spacingTop=-6;fontColor=#FFFFFF;sketch=0;shape=mxgraph.sitemap.services;" vertex="1" parent="1">
          <mxGeometry x="619" y="338.58" width="100" height="60" as="geometry" />
        </mxCell>
        <mxCell id="17Eowlyse28eWyuEnlaL-15" style="edgeStyle=orthogonalEdgeStyle;rounded=0;orthogonalLoop=1;jettySize=auto;html=1;entryX=0;entryY=0.5;entryDx=0;entryDy=0;entryPerimeter=0;" edge="1" parent="1" source="17Eowlyse28eWyuEnlaL-8" target="17Eowlyse28eWyuEnlaL-14">
          <mxGeometry relative="1" as="geometry" />
        </mxCell>
        <mxCell id="17Eowlyse28eWyuEnlaL-21" style="edgeStyle=orthogonalEdgeStyle;rounded=0;orthogonalLoop=1;jettySize=auto;html=1;" edge="1" parent="1" source="17Eowlyse28eWyuEnlaL-18" target="17Eowlyse28eWyuEnlaL-8">
          <mxGeometry relative="1" as="geometry" />
        </mxCell>
        <mxCell id="17Eowlyse28eWyuEnlaL-18" value="API" style="aspect=fixed;sketch=0;html=1;dashed=0;whitespace=wrap;verticalLabelPosition=bottom;verticalAlign=top;fillColor=#2875E2;strokeColor=#ffffff;points=[[0.005,0.63,0],[0.1,0.2,0],[0.9,0.2,0],[0.5,0,0],[0.995,0.63,0],[0.72,0.99,0],[0.5,1,0],[0.28,0.99,0]];shape=mxgraph.kubernetes.icon2;prIcon=api" vertex="1" parent="1">
          <mxGeometry x="510" y="205.68" width="65" height="62.4" as="geometry" />
        </mxCell>
        <mxCell id="17Eowlyse28eWyuEnlaL-29" value="" style="edgeStyle=orthogonalEdgeStyle;rounded=0;orthogonalLoop=1;jettySize=auto;html=1;" edge="1" parent="1" source="17Eowlyse28eWyuEnlaL-27" target="17Eowlyse28eWyuEnlaL-10">
          <mxGeometry relative="1" as="geometry" />
        </mxCell>
        <mxCell id="17Eowlyse28eWyuEnlaL-27" value="" style="aspect=fixed;sketch=0;html=1;dashed=0;whitespace=wrap;verticalLabelPosition=bottom;verticalAlign=top;fillColor=#2875E2;strokeColor=#ffffff;points=[[0.005,0.63,0],[0.1,0.2,0],[0.9,0.2,0],[0.5,0,0],[0.995,0.63,0],[0.72,0.99,0],[0.5,1,0],[0.28,0.99,0]];shape=mxgraph.kubernetes.icon2;kubernetesLabel=1;prIcon=api" vertex="1" parent="1">
          <mxGeometry x="730" y="372.58" width="50" height="48" as="geometry" />
        </mxCell>
        <mxCell id="17Eowlyse28eWyuEnlaL-28" style="edgeStyle=orthogonalEdgeStyle;rounded=0;orthogonalLoop=1;jettySize=auto;html=1;entryX=0.5;entryY=1;entryDx=0;entryDy=0;entryPerimeter=0;" edge="1" parent="1" source="17Eowlyse28eWyuEnlaL-6" target="17Eowlyse28eWyuEnlaL-27">
          <mxGeometry relative="1" as="geometry" />
        </mxCell>
        <mxCell id="17Eowlyse28eWyuEnlaL-40" style="edgeStyle=none;rounded=0;orthogonalLoop=1;jettySize=auto;html=1;exitX=0.5;exitY=0;exitDx=0;exitDy=0;exitPerimeter=0;entryX=0.946;entryY=0.54;entryDx=0;entryDy=0;entryPerimeter=0;" edge="1" parent="1" source="17Eowlyse28eWyuEnlaL-18" target="17Eowlyse28eWyuEnlaL-4">
          <mxGeometry relative="1" as="geometry" />
        </mxCell>
        <mxCell id="17Eowlyse28eWyuEnlaL-41" style="edgeStyle=none;rounded=0;orthogonalLoop=1;jettySize=auto;html=1;exitX=0.5;exitY=0;exitDx=0;exitDy=0;exitPerimeter=0;entryX=0.005;entryY=0.578;entryDx=0;entryDy=0;entryPerimeter=0;" edge="1" parent="1" source="17Eowlyse28eWyuEnlaL-18" target="17Eowlyse28eWyuEnlaL-5">
          <mxGeometry relative="1" as="geometry" />
        </mxCell>
        <mxCell id="17Eowlyse28eWyuEnlaL-42" style="edgeStyle=none;rounded=0;orthogonalLoop=1;jettySize=auto;html=1;exitX=0.9;exitY=0.2;exitDx=0;exitDy=0;exitPerimeter=0;entryX=0.446;entryY=1.001;entryDx=0;entryDy=0;entryPerimeter=0;" edge="1" parent="1" source="17Eowlyse28eWyuEnlaL-18" target="17Eowlyse28eWyuEnlaL-7">
          <mxGeometry relative="1" as="geometry" />
        </mxCell>
        <mxCell id="17Eowlyse28eWyuEnlaL-45" style="rounded=0;orthogonalLoop=1;jettySize=auto;html=1;exitX=0.995;exitY=0.63;exitDx=0;exitDy=0;exitPerimeter=0;entryX=-0.015;entryY=0.485;entryDx=0;entryDy=0;entryPerimeter=0;edgeStyle=orthogonalEdgeStyle;curved=1;" edge="1" parent="1" source="17Eowlyse28eWyuEnlaL-18" target="17Eowlyse28eWyuEnlaL-10">
          <mxGeometry relative="1" as="geometry" />
        </mxCell>
        <mxCell id="17Eowlyse28eWyuEnlaL-56" value="" style="edgeStyle=none;rounded=0;orthogonalLoop=1;jettySize=auto;html=1;" edge="1" parent="1" source="17Eowlyse28eWyuEnlaL-51" target="17Eowlyse28eWyuEnlaL-18">
          <mxGeometry relative="1" as="geometry" />
        </mxCell>
        <mxCell id="17Eowlyse28eWyuEnlaL-51" value="Data Receiver" style="aspect=fixed;sketch=0;html=1;dashed=0;whitespace=wrap;verticalLabelPosition=bottom;verticalAlign=top;fillColor=#2875E2;strokeColor=#ffffff;points=[[0.005,0.63,0],[0.1,0.2,0],[0.9,0.2,0],[0.5,0,0],[0.995,0.63,0],[0.72,0.99,0],[0.5,1,0],[0.28,0.99,0]];shape=mxgraph.kubernetes.icon2;prIcon=api" vertex="1" parent="1">
          <mxGeometry x="390" y="200.07999999999998" width="50" height="48" as="geometry" />
        </mxCell>
        <mxCell id="17Eowlyse28eWyuEnlaL-52" value="Tasks Provider" style="aspect=fixed;sketch=0;html=1;dashed=0;whitespace=wrap;verticalLabelPosition=bottom;verticalAlign=top;fillColor=#2875E2;strokeColor=#ffffff;points=[[0.005,0.63,0],[0.1,0.2,0],[0.9,0.2,0],[0.5,0,0],[0.995,0.63,0],[0.72,0.99,0],[0.5,1,0],[0.28,0.99,0]];shape=mxgraph.kubernetes.icon2;prIcon=api" vertex="1" parent="1">
          <mxGeometry x="390" y="290.58" width="50" height="48" as="geometry" />
        </mxCell>
        <mxCell id="17Eowlyse28eWyuEnlaL-55" style="edgeStyle=none;rounded=0;orthogonalLoop=1;jettySize=auto;html=1;exitX=0.005;exitY=0.63;exitDx=0;exitDy=0;exitPerimeter=0;entryX=0.995;entryY=0.63;entryDx=0;entryDy=0;entryPerimeter=0;" edge="1" parent="1" source="17Eowlyse28eWyuEnlaL-18" target="17Eowlyse28eWyuEnlaL-52">
          <mxGeometry relative="1" as="geometry" />
        </mxCell>
        <mxCell id="17Eowlyse28eWyuEnlaL-62" value="" style="edgeStyle=none;rounded=0;orthogonalLoop=1;jettySize=auto;html=1;entryX=0.812;entryY=0.177;entryDx=0;entryDy=0;entryPerimeter=0;exitX=0.1;exitY=0.035;exitDx=0;exitDy=0;exitPerimeter=0;" edge="1" parent="1" source="17Eowlyse28eWyuEnlaL-57" target="17Eowlyse28eWyuEnlaL-59">
          <mxGeometry relative="1" as="geometry">
            <mxPoint x="330" y="220.07999999999998" as="sourcePoint" />
          </mxGeometry>
        </mxCell>
        <mxCell id="17Eowlyse28eWyuEnlaL-64" value="" style="edgeStyle=none;rounded=0;orthogonalLoop=1;jettySize=auto;html=1;" edge="1" parent="1" source="17Eowlyse28eWyuEnlaL-57" target="17Eowlyse28eWyuEnlaL-52">
          <mxGeometry relative="1" as="geometry" />
        </mxCell>
        <mxCell id="17Eowlyse28eWyuEnlaL-66" value="" style="edgeStyle=none;rounded=0;orthogonalLoop=1;jettySize=auto;html=1;entryX=0.139;entryY=0.755;entryDx=0;entryDy=0;entryPerimeter=0;" edge="1" parent="1" source="17Eowlyse28eWyuEnlaL-57" target="17Eowlyse28eWyuEnlaL-51">
          <mxGeometry relative="1" as="geometry" />
        </mxCell>
        <mxCell id="17Eowlyse28eWyuEnlaL-57" value="&lt;span style=&quot;background-color: rgb(92, 66, 72);&quot;&gt;Challenges Cashier&lt;/span&gt;" style="image;sketch=0;aspect=fixed;html=1;points=[];align=center;fontSize=12;image=img/lib/mscae/Cache_Redis_Product.svg;" vertex="1" parent="1">
          <mxGeometry x="310" y="310.08" width="50" height="42" as="geometry" />
        </mxCell>
        <mxCell id="17Eowlyse28eWyuEnlaL-58" style="edgeStyle=none;rounded=0;orthogonalLoop=1;jettySize=auto;html=1;exitX=0;exitY=0.5;exitDx=0;exitDy=0;" edge="1" parent="1" source="17Eowlyse28eWyuEnlaL-54" target="17Eowlyse28eWyuEnlaL-54">
          <mxGeometry relative="1" as="geometry" />
        </mxCell>
        <mxCell id="17Eowlyse28eWyuEnlaL-78" value="" style="edgeStyle=none;rounded=0;orthogonalLoop=1;jettySize=auto;html=1;" edge="1" parent="1" source="17Eowlyse28eWyuEnlaL-59" target="17Eowlyse28eWyuEnlaL-72">
          <mxGeometry relative="1" as="geometry" />
        </mxCell>
        <mxCell id="17Eowlyse28eWyuEnlaL-59" value="Challenger" style="aspect=fixed;sketch=0;html=1;dashed=0;whitespace=wrap;verticalLabelPosition=bottom;verticalAlign=top;fillColor=#2875E2;strokeColor=#ffffff;points=[[0.005,0.63,0],[0.1,0.2,0],[0.9,0.2,0],[0.5,0,0],[0.995,0.63,0],[0.72,0.99,0],[0.5,1,0],[0.28,0.99,0]];shape=mxgraph.kubernetes.icon2;prIcon=api" vertex="1" parent="1">
          <mxGeometry x="220" y="268.08" width="50" height="48" as="geometry" />
        </mxCell>
        <mxCell id="17Eowlyse28eWyuEnlaL-61" style="edgeStyle=none;rounded=0;orthogonalLoop=1;jettySize=auto;html=1;exitX=0.995;exitY=0.63;exitDx=0;exitDy=0;exitPerimeter=0;entryX=0.027;entryY=0.648;entryDx=0;entryDy=0;entryPerimeter=0;" edge="1" parent="1" source="17Eowlyse28eWyuEnlaL-59" target="17Eowlyse28eWyuEnlaL-57">
          <mxGeometry relative="1" as="geometry" />
        </mxCell>
        <mxCell id="17Eowlyse28eWyuEnlaL-67" style="edgeStyle=none;rounded=0;orthogonalLoop=1;jettySize=auto;html=1;exitX=0.28;exitY=0.99;exitDx=0;exitDy=0;exitPerimeter=0;entryX=0.933;entryY=0.515;entryDx=0;entryDy=0;entryPerimeter=0;" edge="1" parent="1" source="17Eowlyse28eWyuEnlaL-51" target="17Eowlyse28eWyuEnlaL-57">
          <mxGeometry relative="1" as="geometry" />
        </mxCell>
        <mxCell id="17Eowlyse28eWyuEnlaL-73" value="" style="edgeStyle=none;rounded=0;orthogonalLoop=1;jettySize=auto;html=1;" edge="1" parent="1" source="17Eowlyse28eWyuEnlaL-72" target="17Eowlyse28eWyuEnlaL-3">
          <mxGeometry relative="1" as="geometry" />
        </mxCell>
        <mxCell id="17Eowlyse28eWyuEnlaL-74" value="" style="edgeStyle=none;rounded=0;orthogonalLoop=1;jettySize=auto;html=1;" edge="1" parent="1" source="17Eowlyse28eWyuEnlaL-72" target="17Eowlyse28eWyuEnlaL-59">
          <mxGeometry relative="1" as="geometry" />
        </mxCell>
        <mxCell id="17Eowlyse28eWyuEnlaL-72" value="" style="image;aspect=fixed;perimeter=ellipsePerimeter;html=1;align=center;shadow=0;dashed=0;spacingTop=3;image=img/lib/active_directory/internet_cloud.svg;" vertex="1" parent="1">
          <mxGeometry x="100" y="250" width="82.03" height="51.68" as="geometry" />
        </mxCell>
      </root>
    </mxGraphModel>
  </diagram>
</mxfile>
